<?xml version="1.0" encoding="utf-8"?>
<!-- Generator: Adobe Adobe Illustrator 29.2.0, SVG Export Plug-In . SVG Version: 6.00 Build 0)  -->
<svg version="1.1" id="Layer_1" xmlns:xlink="http://www.w3.org/1999/xlink"
	 xmlns="http://www.w3.org/2000/svg" xmlns:xlink="http://www.w3.org/1999/xlink" x="0px" y="0px" width="270.5px" height="180.3px"
	 viewBox="0 0 270.5 180.3" style="enable-background:new 0 0 270.5 180.3;" xml:space="preserve">
<style type="text/css">
	.st0{fill:#FFFFFF;}
	.st1{fill:#008CA1;}
	.st2{fill:url(#SVGID_1_);}
	.st3{fill:#82D8E0;}
	.st4{fill:#0079A9;}
</style>
<path class="st0" d="M-172.7-16.2h598v228h-10.6h-8.3H23.5H10.1h-182.8V-16.2z"/>
<linearGradient id="SVGID_1_" gradientUnits="userSpaceOnUse" x1="231.7352" y1="123.7423" x2="10.4186" y2="130.8765" gradientTransform="matrix(1 0 0 -1 0 197.6418)">
	<stop  offset="0" style="stop-color:#009C9B"/>
	<stop  offset="1" style="stop-color:#0071AC"/>
</linearGradient>
<path class="st2" d="M8,132.9c0-8.9,0.6-17.8,1.7-26.7c4.1-31.3,16.2-60.5,41.8-80.5C80.2,3.3,119.9-3.1,155.3,1.3
	c9.4,1.1,29.2,4.5,35.1,12.5c4.4,5.9,4.8,16.6,3.8,23.7C153.6,25.2,104,18,63.8,35.4c18.1,3,35.8,8.5,52.3,16.5
	c26.4,12.4,50.2,32.1,65.2,57.2c2.6,4.4,6.5,11.3,8.2,16.1l1.2,0.8c-2-5.4-3.6-10.1-5.9-15.5c-11.1-25.8-27.3-49.6-50.1-66.4
	c-6.7-4.9-11.8-7.6-19-11.4c28,2,62.4,6.8,88.8,16.6c13.6,17.2,22.6,42.3,25,63.8c0.5,5,0.9,11.7,1.1,16.8
	c-24.1,11.2-54.7,15.5-80.7,10.9c-23-4-42.7-7.6-66.1-9.4c0-0.7-0.1-1.3-0.1-2c-0.3-4-2.9-8.8-7.3-9.2c-7.8-0.8-16.3,0.4-24.2,0.7
	c-9.5,0.4-12.7,4.2-12,13.4c-1,0.3-2.1,0.6-3.1,0.8C27.5,137.3,16.6,138.3,8,132.9z"/>
<path class="st3" d="M189.6,125.3l1.2,0.8c0.6,1.6,1,3.6,1.5,5.3C191.2,129.2,190.5,127.5,189.6,125.3z"/>
<path class="st1" d="M239.2,135.6c1.2,0,8.1,4,9.7,5c19.5,11.7,36.6,21.1,0.4,25c-34.9,3.8-72.3,1.3-106.7-4.7
	c-35.6-6.2-70.1-13.8-105.9-4.4c-2.3,0.6-5.8,0.8-8.2,1c-1.4,0.1-2.7,0.1-4.1,0.1c-6,0.1-17.7-0.7-22.6-4.7
	c-2.4-1.9-1.7-11.5-1.7-15c6.7,6.7,15.7,8.4,24.9,8.2c8.2-0.1,16.3-2.8,24.3-4c7.8-1.2,15.8-1.7,23.7-1.6c18.5,0.1,36.8,2.7,55,5.9
	c11.4,2,21.1,4,32.7,4.8c14.6,1,29.2,0,43.5-2.9C217.8,145.6,227.3,142.6,239.2,135.6z"/>
<path class="st4" d="M64,161.4c7-0.8,20.8,0.2,27.9,0.7c-4.9,4.7-16.8,14.3-23.3,15.6c-5.4,1.1-14.9,1.7-20.7,2.2
	c-5.5,0.5-18.5,2.2-22.4-1c-3.8-3.1-3.9-7.6-4.5-12C37.3,167,47.7,162.6,64,161.4z"/>
</svg>
