<?xml version="1.0" encoding="UTF-8"?>
<svg id="Layer_1" xmlns="http://www.w3.org/2000/svg" xmlns:xlink="http://www.w3.org/1999/xlink" version="1.1" viewBox="0 0 85.04 56.69">
  <!-- Generator: Adobe Illustrator 29.8.4, SVG Export Plug-In . SVG Version: 2.1.1 Build 6)  -->
  <defs>
    <style>
      .st0 {
        fill: url(#linear-gradient);
      }
    </style>
    <linearGradient id="linear-gradient" x1="0" y1="28.35" x2="85.04" y2="28.35" gradientUnits="userSpaceOnUse">
      <stop offset=".05" stop-color="#007dc4"/>
      <stop offset=".85" stop-color="#00a9ac"/>
    </linearGradient>
  </defs>
  <path class="st0" d="M85.04,49.6c-.09,2.22-11.39,3.05-22.68,2.8-3.81-.08-15.94-1.6-19.84-2.37-8.05-1.6-14.55-2.38-19.9-2.38-3.45,0-6.49.33-9.29,1.01-2.13.52-4.16.78-6.03.78-2.68,0-4.74-.52-6.27-1.16-.81-.31-1.03-.88-1.03-2.59v-2.54l.45.44c.36.36,2.4,2.16,6.85,2.16,1.58,0,3.32-.23,5.16-.67,3.09-.75,6.42-1.12,10.17-1.12,5.59,0,12.33.8,20.62,2.45,3.66.73,7.32,1.1,10.9,1.1,12.06,0,19.38-4.16,19.68-4.34l1.32-.78c3.98,2.05,9.97,5.54,9.9,7.21ZM22.62,50.53c-3.22,0-6.03.3-8.61.93-2.35.57-4.61.86-6.72.86-.26,0-.51,0-.76-.02l.27,1.99s.34,2.4,3.09,2.4,7.55-.51,11.16-.86c1.92-.18,5.15-2.69,7.75-4.99-2.23-.21-4.29-.31-6.18-.31ZM64.21,15.43c-12.37-4.44-27.83-5.15-27.83-5.15,18.36,8.67,23.91,30.74,23.91,30.74C50.22,14.79,20.01,11.1,20.01,11.1c16.38-7.65,40.96.67,40.96.67,0,0,.52-3.31-.44-6.04-.77-2.18-2.38-3.74-10.08-5.07C36.71-1.71,2.48.22,2.48,41.56c0,0,2.42,2.4,9.29.73.27-.07.55-.13.83-.19l-.06-.98c-.09-1.64,1.18-3.06,2.82-3.16l7.7-.44c1.65-.09,3.07,1.17,3.17,2.81l.05.85c4.76.25,10.46,1,17.52,2.4,17.54,3.49,28.57-2.91,28.57-2.91,0-12.29-4.79-20.79-8.16-25.25Z"/>
</svg>